<svg width="512" height="512" viewBox="0 0 512 512" xmlns="http://www.w3.org/2000/svg">
  <!-- Background Circle -->
  <defs>
    <linearGradient id="bgGradient" x1="0%" y1="0%" x2="100%" y2="100%">
      <stop offset="0%" style="stop-color:#2563eb;stop-opacity:1" />
      <stop offset="100%" style="stop-color:#1e40af;stop-opacity:1" />
    </linearGradient>
    <filter id="shadow" x="-50%" y="-50%" width="200%" height="200%">
      <feDropShadow dx="0" dy="4" stdDeviation="8" flood-opacity="0.2"/>
    </filter>
  </defs>

  <!-- Main Circle Background -->
  <circle cx="256" cy="256" r="240" fill="url(#bgGradient)" filter="url(#shadow)"/>

  <!-- Star/Nexus Symbol -->
  <g transform="translate(256, 256)">
    <!-- Outer Star Points -->
    <path d="M 0,-120 L 30,-40 L 110,-20 L 40,30 L 60,110 L 0,45 L -60,110 L -40,30 L -110,-20 L -30,-40 Z"
          fill="white"
          opacity="0.9"/>

    <!-- Inner Connection Lines -->
    <g stroke="white" stroke-width="3" fill="none" opacity="0.6">
      <line x1="0" y1="-120" x2="60" y2="110"/>
      <line x1="0" y1="-120" x2="-60" y2="110"/>
      <line x1="110" y1="-20" x2="-110" y2="-20"/>
      <line x1="110" y1="-20" x2="-40" y2="30"/>
      <line x1="-110" y1="-20" x2="40" y2="30"/>
    </g>

    <!-- Center Nexus Point -->
    <circle cx="0" cy="0" r="25" fill="white"/>
    <circle cx="0" cy="0" r="15" fill="url(#bgGradient)"/>
  </g>

  <!-- Collaboration Dots (representing team members) -->
  <g opacity="0.7">
    <circle cx="256" cy="100" r="8" fill="white"/>
    <circle cx="412" cy="256" r="8" fill="white"/>
    <circle cx="256" cy="412" r="8" fill="white"/>
    <circle cx="100" cy="256" r="8" fill="white"/>
    <circle cx="360" cy="150" r="6" fill="white"/>
    <circle cx="360" cy="362" r="6" fill="white"/>
    <circle cx="152" cy="362" r="6" fill="white"/>
    <circle cx="152" cy="150" r="6" fill="white"/>
  </g>
</svg>