<?xml version="1.0" encoding="utf-8" standalone="no"?>
<!DOCTYPE svg PUBLIC "-//W3C//DTD SVG 1.1//EN"
  "http://www.w3.org/Graphics/SVG/1.1/DTD/svg11.dtd">
<svg xmlns:xlink="http://www.w3.org/1999/xlink" width="288pt" height="288pt" viewBox="0 0 288 288" xmlns="http://www.w3.org/2000/svg" version="1.1">
 <metadata>
  <rdf:RDF xmlns:dc="http://purl.org/dc/elements/1.1/" xmlns:cc="http://creativecommons.org/ns#" xmlns:rdf="http://www.w3.org/1999/02/22-rdf-syntax-ns#">
   <cc:Work>
    <dc:type rdf:resource="http://purl.org/dc/dcmitype/StillImage"/>
    <dc:date>2025-10-07T11:17:04.292005</dc:date>
    <dc:format>image/svg+xml</dc:format>
    <dc:creator>
     <cc:Agent>
      <dc:title>Matplotlib v3.6.3, https://matplotlib.org/</dc:title>
     </cc:Agent>
    </dc:creator>
   </cc:Work>
  </rdf:RDF>
 </metadata>
 <defs>
  <style type="text/css">*{stroke-linejoin: round; stroke-linecap: butt}</style>
 </defs>
 <g id="figure_1">
  <g id="patch_1">
   <path d="M 0 288 
L 288 288 
L 288 0 
L 0 0 
L 0 288 
z
" style="fill: none; opacity: 0"/>
  </g>
  <g id="axes_1">
   <g id="patch_2">
    <path d="M 56.270769 265.846154 
L 231.729231 265.846154 
Q 265.846154 265.846154 265.846154 231.729231 
L 265.846154 56.270769 
Q 265.846154 22.153846 231.729231 22.153846 
L 56.270769 22.153846 
Q 22.153846 22.153846 22.153846 56.270769 
L 22.153846 231.729231 
Q 22.153846 265.846154 56.270769 265.846154 
z
" clip-path="url(#p2e17544666)" style="fill: #ffffff"/>
   </g>
   <g id="patch_3">
    <path d="M 144 33.230769 
C 144 106.338462 181.661538 144 254.769231 144 
C 181.661538 144 144 181.661538 144 254.769231 
C 144 181.661538 106.338462 144 33.230769 144 
C 106.338462 144 144 106.338462 144 33.230769 
z
" clip-path="url(#p2e17544666)" style="fill: #2f5aa0"/>
   </g>
  </g>
 </g>
 <defs>
  <clipPath id="p2e17544666">
   <rect x="0" y="0" width="288" height="288"/>
  </clipPath>
 </defs>
</svg>
